<?xml version="1.0" encoding="utf-8"?>
<!-- Generator: Adobe Illustrator 23.0.4, SVG Export Plug-In . SVG Version: 6.00 Build 0)  -->
<svg version="1.1" id="Layer_1" xmlns="http://www.w3.org/2000/svg" xmlns:xlink="http://www.w3.org/1999/xlink" x="0px" y="0px"
	 viewBox="0 0 100 100" style="enable-background:new 0 0 100 100;" xml:space="preserve">
<style type="text/css">
	.st0{fill:#F4F7F9;stroke:#060809;stroke-width:2;stroke-linecap:round;stroke-linejoin:round;stroke-miterlimit:10;}
	.st1{fill:#F9BA48;stroke:#060809;stroke-width:2;stroke-linecap:round;stroke-linejoin:round;stroke-miterlimit:10;}
	.st2{fill:none;stroke:#060809;stroke-width:2;stroke-linecap:round;stroke-linejoin:round;stroke-miterlimit:10;}
	.st3{fill:none;stroke:#060809;stroke-linecap:round;stroke-linejoin:round;stroke-miterlimit:10;}
</style>
<path class="st0" d="M26.9,52.5c-3.5,0-6.3-2.8-6.3-6.3c0-0.8,0.2-1.7,0.5-2.4c1-2.5,1.6-5.1,1.6-7.9v-7.7c0-3.2,2.6-5.8,5.8-5.8
	l0,0c0-4.1,3.4-7.5,7.5-7.5c1,0,2,0.2,2.9,0.6C41.2,12.2,45,10,49.4,10c6.1,0,11.1,4.3,12.2,10l0.2,0v0c2.8,0,5,2.2,5,5l0,0
	c2.8,0,5,2.2,5,5l0,0c0,2.8-2.2,5-5,5v-5h-40V52.5z"/>
<path class="st1" d="M66.9,85c0,2.8-2.2,5-5,5h-30c-2.8,0-5-2.2-5-5V30h40L66.9,85L66.9,85z"/>
<path class="st2" d="M74.4,40h-7.5v35l11-11c0.9-0.9,1.5-2.2,1.5-3.5V45C79.4,42.2,77.1,40,74.4,40z"/>
<path class="st2" d="M26.9,85h40H26.9z"/>
<path class="st3" d="M46.9,30v45V30z"/>
<path class="st3" d="M36.9,30v45V30z"/>
<path class="st3" d="M56.9,30v45V30z"/>
<path class="st3" d="M26.9,75c0,2.8,2.2,5,5,5c2.8,0,5-2.2,5-5c0,2.8,2.2,5,5,5s5-2.2,5-5h0c0,2.8,2.2,5,5,5s5-2.2,5-5
	c0,2.8,2.2,5,5,5c2.8,0,5-2.2,5-5c0,2.8-2.2,5-5,5c-2.8,0-5-2.2-5-5c0,2.8-2.2,5-5,5s-5-2.2-5-5h0c0,2.8-2.2,5-5,5s-5-2.2-5-5
	c0,2.8-2.2,5-5,5C29.1,80,26.9,77.8,26.9,75z"/>
<path class="st3" d="M26.9,70l6.2-6.3L26.9,70z"/>
<path class="st3" d="M26.9,75l3.7-3.8L26.9,75z"/>
<path class="st2" d="M32,24c-0.9-0.9-2.2-1.5-3.5-1.5C29.9,22.5,31.1,23.1,32,24z"/>
<path class="st2" d="M36.9,22.5c0-2.5,0.8-4.9,2.1-6.9C37.6,17.6,36.9,20,36.9,22.5z"/>
<path class="st2" d="M49.4,25c0-2.1,1.7-3.7,3.7-3.7s3.7,1.7,3.8,3.7c0-2.8,2.2-5,5-5v0v0c-2.8,0-5,2.2-5,5c0-2.1-1.7-3.7-3.8-3.7
	S49.4,22.9,49.4,25z"/>
<path class="st2" d="M63.3,26.5c1-1,2.3-1.5,3.5-1.5C65.6,25,64.3,25.5,63.3,26.5z"/>
<path class="st3" d="M66.9,43.8h7.5c0.7,0,1.2,0.6,1.2,1.2v15.4c0,0.4-0.2,0.8-0.4,1l0,0l-8.3,8.3V43.8z"/>
</svg>
