<?xml version="1.0" encoding="utf-8"?>
<!-- Generator: Adobe Illustrator 23.0.4, SVG Export Plug-In . SVG Version: 6.00 Build 0)  -->
<svg version="1.1" id="Layer_1" xmlns="http://www.w3.org/2000/svg" xmlns:xlink="http://www.w3.org/1999/xlink" x="0px" y="0px"
	 viewBox="0 0 100 100" style="enable-background:new 0 0 100 100;" xml:space="preserve">
<style type="text/css">
	.st0{fill:#A5CF64;stroke:#060809;stroke-linecap:round;stroke-linejoin:round;stroke-miterlimit:10;}
	.st1{fill:#F9BA48;stroke:#060809;stroke-width:2;stroke-linecap:round;stroke-linejoin:round;stroke-miterlimit:10;}
	.st2{fill:#B25B28;stroke:#060809;stroke-linecap:round;stroke-linejoin:round;stroke-miterlimit:10;}
	.st3{fill:none;stroke:#060809;stroke-linecap:round;stroke-linejoin:round;stroke-miterlimit:10;}
	.st4{fill:#F9BA48;stroke:#060809;stroke-linecap:round;stroke-linejoin:round;stroke-miterlimit:10;}
	.st5{fill:#EF484A;stroke:#060809;stroke-linecap:round;stroke-linejoin:round;stroke-miterlimit:10;}
</style>
<path class="st0" d="M25,40c-2.8,0-5,2.2-5,5c0,2.8,2.2,5,5,5h50c2.8,0,5-2.2,5-5c0-2.8-2.2-5-5-5H25z"/>
<path class="st1" d="M83.3,33.3C83.3,20.4,68.4,10,50,10c-18.4,0-33.3,10.4-33.3,23.3l0,0c0,3.7,3,6.7,6.7,6.7h53.3
	C80.3,40,83.3,37,83.3,33.3z"/>
<path class="st2" d="M76.7,56.7c1.8,0,3.3-1.5,3.3-3.3c0-1.8-1.5-3.3-3.3-3.3H23.3c-1.8,0-3.3,1.5-3.3,3.3c0,1.8,1.5,3.3,3.3,3.3
	H76.7z"/>
<path class="st3" d="M56.7,50L50,56.7L56.7,50z"/>
<path class="st3" d="M50,50l-6.7,6.7L50,50z"/>
<path class="st3" d="M43.3,50l-6.7,6.7L43.3,50z"/>
<path class="st3" d="M36.7,50L30,56.7L36.7,50z"/>
<path class="st3" d="M30,50l-6.7,6.7L30,50z"/>
<path class="st3" d="M63.3,50l-6.7,6.7L63.3,50z"/>
<path class="st3" d="M70,50l-6.7,6.7L70,50z"/>
<path class="st3" d="M76.7,50L70,56.7L76.7,50z"/>
<path class="st3" d="M49.2,14.8h1.7H49.2z"/>
<path class="st3" d="M57.3,20h1.7H57.3z"/>
<path class="st3" d="M40,20.6h1.7H40z"/>
<path class="st3" d="M45.5,19.1v-1.7V19.1z"/>
<path class="st3" d="M67.2,20.8v-1.7V20.8z"/>
<path class="st3" d="M33.3,20.8v-1.7V20.8z"/>
<path class="st3" d="M52.6,20l-1.2-1.2L52.6,20z"/>
<path class="st3" d="M63.3,18.1l-1.2-1.2L63.3,18.1z"/>
<path class="st3" d="M72.2,21.4L71,20.2L72.2,21.4z"/>
<path class="st3" d="M37.3,18.1l-1.2-1.2L37.3,18.1z"/>
<path class="st3" d="M42.6,14.8L41.5,16L42.6,14.8z"/>
<path class="st3" d="M29.5,20l-1.2,1.2L29.5,20z"/>
<path class="st3" d="M57.3,15.4l-1.2,1.2L57.3,15.4z"/>
<path class="st3" d="M63.3,21.7l-1.2,1.2L63.3,21.7z"/>
<path class="st3" d="M48.7,21.7l-1.2,1.2L48.7,21.7z"/>
<path class="st3" d="M79.8,43.7c-3.5,0.1-3.6,2.7-7.3,2.7c-3.8,0-3.8-2.7-7.5-2.7c-3.7,0-3.7,2.7-7.5,2.7c-3.7,0-3.7-2.7-7.5-2.7
	c-3.7,0-3.7,2.7-7.5,2.7c-3.7,0-3.7-2.7-7.5-2.7c-3.7,0-3.7,2.7-7.5,2.7c-3.7,0-3.8-2.6-7.3-2.7c3.5,0.1,3.6,2.7,7.3,2.7
	c3.7,0,3.7-2.7,7.5-2.7c3.7,0,3.7,2.7,7.5,2.7c3.7,0,3.7-2.7,7.5-2.7c3.7,0,3.7,2.7,7.5,2.7c3.8,0,3.8-2.7,7.5-2.7
	c3.8,0,3.8,2.7,7.5,2.7C76.2,46.3,76.3,43.8,79.8,43.7z"/>
<rect x="23.3" y="56.7" class="st4" width="26.7" height="3.3"/>
<path class="st5" d="M76.7,60H70c0,0.9-0.4,1.8-1,2.4c-0.6,0.6-1.4,1-2.4,1h0c0-1.8-1.5-3.3-3.3-3.3H50H23.3c-1.8,0-3.3,1.5-3.3,3.3
	c0,1.8,1.5,3.3,3.3,3.3h53.3c1.8,0,3.3-1.5,3.3-3.3C80,61.5,78.5,60,76.7,60z"/>
<path class="st4" d="M50,56.7V60h13.3c1.8,0,3.3,1.5,3.3,3.3h0c0.9,0,1.8-0.4,2.4-1c0.6-0.6,1-1.4,1-2.4h6.7v-3.3H50z"/>
<rect x="50" y="66.7" class="st4" width="26.7" height="3.3"/>
<rect x="23.3" y="76.7" class="st0" width="53.3" height="3.3"/>
<path class="st2" d="M76.7,70H50H36.7c-1.8,0-3.3,1.5-3.3,3.3h0c-0.9,0-1.8-0.4-2.4-1c-0.6-0.6-1-1.4-1-2.4h-6.7l0,0
	c-1.8,0-3.3,1.5-3.3,3.3c0,1.8,1.5,3.3,3.3,3.3h53.3c1.8,0,3.3-1.5,3.3-3.3C80,71.5,78.5,70,76.7,70z"/>
<path class="st4" d="M50,66.7V70H36.7c-1.8,0-3.3,1.5-3.3,3.3h0c-0.9,0-1.8-0.4-2.4-1c-0.6-0.6-1-1.4-1-2.4h-6.7v-3.3H50z"/>
<path class="st3" d="M20,63.3h40H20z"/>
<path class="st3" d="M40,73.3h40H40z"/>
<path class="st1" d="M83.3,83.3c0,3.7-3,6.7-6.7,6.7H23.3c-3.7,0-6.7-3-6.7-6.7c0-1.8,1.5-3.3,3.3-3.3h60
	C81.8,80,83.3,81.5,83.3,83.3z"/>
</svg>
