<svg xmlns="http://www.w3.org/2000/svg" viewBox="0 0 30.75 13.1"><defs><style>.cls-1{fill:#fff;}</style></defs><title>Asset 2</title><g id="Layer_2" data-name="Layer 2"><g id="Layer_3" data-name="Layer 3"><polygon class="cls-1" points="10.44 8.15 0 8.15 0.96 6.5 0 4.84 10.44 4.84 10.44 5.02 0.31 5.02 1.16 6.5 0.31 7.98 10.44 7.98 10.44 8.15"/><polygon class="cls-1" points="30.75 8.15 20.31 8.15 20.31 7.98 30.45 7.98 29.59 6.5 30.45 5.02 20.31 5.02 20.31 4.84 30.75 4.84 29.8 6.5 30.75 8.15"/><path class="cls-1" d="M8.26,9.64H8v.19H8.3v.1H7.9V9.26h.4v.1H8v.17h.23Z"/><path class="cls-1" d="M8.86,9.76a.08.08,0,0,0,0-.06s0,0-.07,0a.4.4,0,0,1-.16-.08.15.15,0,0,1,0-.13.17.17,0,0,1,.06-.14.25.25,0,0,1,.15-.05.21.21,0,0,1,.16.06A.17.17,0,0,1,9,9.45H8.86a.15.15,0,0,0,0-.08.09.09,0,0,0-.07,0,.09.09,0,0,0-.06,0,.08.08,0,0,0,0,.06.08.08,0,0,0,0,.05l.09,0a.37.37,0,0,1,.14.08A.17.17,0,0,1,9,9.76a.18.18,0,0,1-.06.14.25.25,0,0,1-.15,0,.25.25,0,0,1-.17-.06.19.19,0,0,1-.07-.16h.13s0,.08,0,.09a.1.1,0,0,0,.08,0l.06,0A.14.14,0,0,0,8.86,9.76Z"/><path class="cls-1" d="M9.66,9.36H9.51v.57H9.38V9.36H9.23v-.1h.43Z"/><path class="cls-1" d="M10,9.93H9.82V9.81H10Z"/><path class="cls-1" d="M20.93,9.93h-.4V9.85l.18-.24a.41.41,0,0,0,.05-.09.25.25,0,0,0,0-.07.14.14,0,0,0,0-.07.05.05,0,0,0-.05,0s0,0-.05,0a.19.19,0,0,0,0,.08h-.13a.22.22,0,0,1,.05-.16.17.17,0,0,1,.14-.06.23.23,0,0,1,.15.05.25.25,0,0,1,.05.15.2.2,0,0,1,0,.11.8.8,0,0,1-.09.14l-.09.13h.23Z"/><path class="cls-1" d="M21.59,9.67a.33.33,0,0,1-.06.21.17.17,0,0,1-.14.07.21.21,0,0,1-.15-.07.41.41,0,0,1,0-.21V9.52a.37.37,0,0,1,0-.2.18.18,0,0,1,.15-.07.15.15,0,0,1,.14.07.3.3,0,0,1,.06.2Zm-.14-.16a.41.41,0,0,0,0-.12s0,0-.05,0h0a0,0,0,0,0-.05,0,.37.37,0,0,0,0,.12v.17a.29.29,0,0,0,0,.12.05.05,0,0,0,.05,0h0a.05.05,0,0,0,.05,0,.35.35,0,0,0,0-.12Z"/><path class="cls-1" d="M22.25,9.67a.33.33,0,0,1-.06.21.17.17,0,0,1-.28,0,.33.33,0,0,1-.06-.21V9.52a.3.3,0,0,1,.06-.2.18.18,0,0,1,.28,0,.3.3,0,0,1,.06.2Zm-.13-.16a.37.37,0,0,0,0-.12.05.05,0,0,0-.05,0h0a.05.05,0,0,0-.05,0,.37.37,0,0,0,0,.12v.17a.29.29,0,0,0,0,.12.05.05,0,0,0,.05,0h0a.05.05,0,0,0,.05,0,.29.29,0,0,0,0-.12Z"/><path class="cls-1" d="M22.86,9.68h.06v.11h-.06v.14h-.13V9.79h-.22V9.7l.23-.44h.13Zm-.24,0h.11V9.45h0Z"/><path class="cls-1" d="M2.65,6.52a.27.27,0,0,1-.23.08H2.29v.59H2.2V5.9h.2a.34.34,0,0,1,.24,0c.07.06.07.14.07.24v.14A.27.27,0,0,1,2.65,6.52Zm0-.3c0-.11,0-.18-.06-.22a.21.21,0,0,0-.13,0H2.29v.56h.15a.19.19,0,0,0,.14,0,.21.21,0,0,0,0-.15Z"/><path class="cls-1" d="M3.54,7.19l-.23-.63H3.17v.63H3.08V5.9h.25a.28.28,0,0,1,.18,0,.21.21,0,0,1,.07.18v.21a.32.32,0,0,1,0,.08.17.17,0,0,1-.12.13l-.05,0,.24.63Zm0-1A.19.19,0,0,0,3.43,6H3.17v.51h.16a.15.15,0,0,0,.08,0,.11.11,0,0,0,.08-.12Z"/><path class="cls-1" d="M4,6v.5h.3v.08H4v.55H4.4v.08H4V5.9h.46V6Z"/><path class="cls-1" d="M5.36,7.19V6L5.13,7.19H5.05L4.82,6V7.19H4.73V5.9h.14L5.09,7,5.31,5.9h.13V7.19Z"/><path class="cls-1" d="M5.84,7.19V5.9h.1V7.19Z"/><path class="cls-1" d="M6.83,7.07a.26.26,0,0,1-.24.15.37.37,0,0,1-.17,0l0,0a.42.42,0,0,1,0-.24v-1h.09v1a.34.34,0,0,0,0,.17.15.15,0,0,0,.14.06.2.2,0,0,0,.11,0c.06,0,.06-.12.06-.25V5.9h.09v1A.59.59,0,0,1,6.83,7.07Z"/><path class="cls-1" d="M7.87,7.19V6L7.64,7.19H7.55L7.32,6V7.19H7.24V5.9h.13L7.59,7,7.81,5.9h.13V7.19Z"/><path class="cls-1" d="M23.43,7.37l-.2-.17h-.07a.28.28,0,0,1-.16,0l-.05,0C22.9,7,22.9,7,22.9,6.77V6.19a.53.53,0,0,1,0-.14.25.25,0,0,1,.26-.17A.26.26,0,0,1,23.4,6a.32.32,0,0,1,0,.16v.71a.34.34,0,0,1-.06.24l-.05,0,.17.16Zm-.1-1.21a.28.28,0,0,0,0-.09A.16.16,0,0,0,23.16,6C23,6,23,6.16,23,6.2v.61a.54.54,0,0,0,0,.25.17.17,0,0,0,.14.07.14.14,0,0,0,.1,0,.22.22,0,0,0,.07-.2Z"/><path class="cls-1" d="M24.31,7.07a.25.25,0,0,1-.24.15.34.34,0,0,1-.16,0l0,0a.36.36,0,0,1-.06-.24v-1h.09v1a.34.34,0,0,0,0,.17.15.15,0,0,0,.14.06.18.18,0,0,0,.11,0c.06,0,.06-.12.06-.25V5.9h.09v1A.3.3,0,0,1,24.31,7.07Z"/><path class="cls-1" d="M25.17,7.19,25.1,6.8h-.27l-.07.39h-.1l.24-1.3H25l.23,1.3ZM25,6.11S25,6,25,6s0,.08,0,.11l-.11.61h.24Z"/><path class="cls-1" d="M25.6,7.19V5.9h.09V7.11H26v.08Z"/><path class="cls-1" d="M26.36,7.19V5.9h.09V7.19Z"/><path class="cls-1" d="M27.07,6V7.19H27V6h-.23V5.9h.55V6Z"/><path class="cls-1" d="M27.87,6.62v.57h-.09V6.62l-.26-.72h.1l.21.61L28,5.9h.1Z"/><path class="cls-1" d="M16.15,3.33V4a.36.36,0,0,1-.36.36h-.57A.36.36,0,0,1,14.86,4V3.33h1.29m.15-.16H14.71V4a.51.51,0,0,0,.51.51h.57A.51.51,0,0,0,16.3,4V4a.41.41,0,0,0,.18,0,.35.35,0,1,0,0-.7.41.41,0,0,0-.18,0V3.17Zm.18.67a.2.2,0,0,1-.18-.12V3.61a.19.19,0,0,1,.18-.13.18.18,0,1,1,0,.36Z"/><rect class="cls-1" x="15.37" y="3.17" width="0.07" height="6.76" transform="translate(-0.12 12.81) rotate(-44.99)"/><rect class="cls-1" x="12.03" y="6.51" width="6.76" height="0.07" transform="translate(-0.12 12.81) rotate(-45)"/><path class="cls-1" d="M12.17,7.48V5.64h.47a1.09,1.09,0,0,1,.28,0,.5.5,0,0,1,.19.11.59.59,0,0,1,.13.17.6.6,0,0,1,0,.24.57.57,0,0,1-.08.29.47.47,0,0,1-.18.19.88.88,0,0,1-.39.07h-.31v.74Zm.16-1.67v.76h.46A.5.5,0,0,0,13,6.52a.41.41,0,0,0,.12-.14.41.41,0,0,0,0-.19.35.35,0,0,0,0-.18A.28.28,0,0,0,13,5.88a.38.38,0,0,0-.17-.06h-.46Z"/><path class="cls-1" d="M18.9,7.52l-.15,0-.11,0-.12-.1a.67.67,0,0,1-.21.1.8.8,0,0,1-.3.06.75.75,0,0,1-.37-.09.88.88,0,0,1-.29-.2A1.06,1.06,0,0,1,17.18,7a1.1,1.1,0,0,1-.08-.4,1.16,1.16,0,0,1,.11-.48.86.86,0,0,1,.33-.35A.88.88,0,0,1,18,5.61a.9.9,0,0,1,.8.48,1,1,0,0,1,.12.48,1,1,0,0,1-.08.38,1.21,1.21,0,0,1-.2.3.59.59,0,0,0,.11.08l.14,0Zm-1.6-.73.18,0h.18a.75.75,0,0,1,.21,0,.66.66,0,0,1,.2.06l.21.11a2,2,0,0,1,.24.21.87.87,0,0,0,.18-.26.73.73,0,0,0,.06-.3.82.82,0,0,0-.1-.4.84.84,0,0,0-.27-.29.74.74,0,0,0-.37-.1.68.68,0,0,0-.34.08,1,1,0,0,0-.2.15.64.64,0,0,0-.14.22.81.81,0,0,0-.07.35A.76.76,0,0,0,17.3,6.79Zm.07.16a.8.8,0,0,0,.26.29.77.77,0,0,0,.4.11.56.56,0,0,0,.36-.12,1.77,1.77,0,0,0-.18-.15A1,1,0,0,0,18,7a.6.6,0,0,0-.19-.06l-.22,0A.53.53,0,0,0,17.37,7Z"/><path class="cls-1" d="M16,9.46h.19a.78.78,0,0,1-.13.19.81.81,0,0,1-.19.18,1,1,0,0,1-.23.11l-.23,0A.86.86,0,0,1,15,9.85a.93.93,0,0,1-.33-.35,1,1,0,0,1,0-1A.87.87,0,0,1,15,8.2a.8.8,0,0,1,.44-.13.89.89,0,0,1,.79.5H16a1.22,1.22,0,0,0-.14-.16.64.64,0,0,0-.19-.13.69.69,0,0,0-.25,0,.71.71,0,0,0-.37.1.7.7,0,0,0-.26.3.75.75,0,0,0-.1.38.78.78,0,0,0,.06.31.72.72,0,0,0,.16.24.74.74,0,0,0,.2.16.67.67,0,0,0,.3.08.6.6,0,0,0,.24-.05.77.77,0,0,0,.21-.14A.76.76,0,0,0,16,9.46Z"/><path class="cls-1" d="M15.38,13.1,8.83,6.55,15.38,0l6.55,6.55ZM9.08,6.55l6.3,6.3,6.3-6.3L15.38.25Z"/></g></g></svg>