<svg xmlns="http://www.w3.org/2000/svg" viewBox="0 0 23.76 9.18"><defs><style>.cls-1{fill:#fff;}</style></defs><title>Asset 3</title><g id="Layer_2" data-name="Layer 2"><g id="Layer_3" data-name="Layer 3"><path class="cls-1" d="M14.53,2.94a.84.84,0,0,0-.39.1v-.1H9V3a2.6,2.6,0,0,0,4.92,1.16.77.77,0,0,0,.66.37.78.78,0,1,0,0-1.55Zm-5.09.45H10a2.62,2.62,0,0,0,1,1.63A2.18,2.18,0,0,1,9.44,3.39Zm5.09.74a.42.42,0,1,1,.41-.41A.41.41,0,0,1,14.53,4.13Z"/><path class="cls-1" d="M13.21,5.74h-3a.19.19,0,1,0,0,.37h3a.18.18,0,0,0,.18-.18A.18.18,0,0,0,13.21,5.74Z"/><path class="cls-1" d="M10.76,2.35l.13-.13s-.36-.12-.46-.32,0-.27.14-.42l.24-.22c.51-.46,1-.89,0-1.26l-.15.13c.71.27.46.55-.1,1l-.25.22c-.19.19-.25.37-.16.54A1,1,0,0,0,10.76,2.35Z"/><path class="cls-1" d="M11.4,1.18l-.25.22c-.19.19-.25.37-.17.54a1.09,1.09,0,0,0,.6.41l.13-.13s-.36-.12-.46-.32,0-.27.14-.42l.24-.22c.51-.46,1-.89,0-1.26L11.5.13C12.21.4,12,.68,11.4,1.18Z"/><path class="cls-1" d="M12.22,1.18,12,1.4c-.19.19-.25.37-.17.54a1.09,1.09,0,0,0,.6.41l.13-.13s-.36-.12-.46-.32,0-.27.14-.42l.24-.22c.51-.46,1-.89,0-1.26l-.16.13C13,.4,12.78.68,12.22,1.18Z"/><path class="cls-1" d="M.62,5.13a.62.62,0,0,1,0,.12.26.26,0,0,1-.15.2.5.5,0,0,1-.15,0,.27.27,0,0,1-.19-.06.17.17,0,0,1-.06-.06A.63.63,0,0,1,0,5V4.57a.55.55,0,0,1,.07-.33.35.35,0,0,1,.26-.1.26.26,0,0,1,.21.08.34.34,0,0,1,.07.26v.08H.46V4.42A.13.13,0,0,0,.41,4.3a.15.15,0,0,0-.08,0,.14.14,0,0,0-.15.12,2.2,2.2,0,0,0,0,.42,2.81,2.81,0,0,0,0,.29.33.33,0,0,0,0,.17.17.17,0,0,0,.13.07.13.13,0,0,0,.09,0,.29.29,0,0,0,.06-.22V5H.62Z"/><path class="cls-1" d="M1,5.45V4.16h.57V4.3H1.12v.39h.36v.14H1.12v.48h.42v.14Z"/><path class="cls-1" d="M2.38,5.45l-.21-.57H2v.57H1.87V4.16h.28a.36.36,0,0,1,.25.06.41.41,0,0,1,.1.28.78.78,0,0,1,0,.16.27.27,0,0,1,0,.14.24.24,0,0,1-.11.07l.23.58ZM2.32,4.39c0-.09-.13-.09-.21-.09H2v.46h.09l.14,0c.08,0,.08-.14.08-.21A.32.32,0,0,0,2.32,4.39Z"/><path class="cls-1" d="M3.19,4.3V5.45H3V4.3H2.78V4.16h.65V4.3Z"/><path class="cls-1" d="M3.73,5.45V4.16h.16V5.45Z"/><path class="cls-1" d="M4.42,4.3v.38h.35v.15H4.42v.62H4.26V4.16h.57V4.3Z"/><path class="cls-1" d="M5.13,5.45V4.16h.16V5.45Z"/><path class="cls-1" d="M5.66,5.45V4.16h.57V4.3H5.82v.39h.35v.14H5.82v.48h.42v.14Z"/><path class="cls-1" d="M7.19,5v.14a.29.29,0,0,1-.14.25.48.48,0,0,1-.24,0H6.57V4.16h.24a.45.45,0,0,1,.23,0,.27.27,0,0,1,.15.2,3.13,3.13,0,0,1,0,.35C7.2,4.83,7.2,4.93,7.19,5ZM7,4.54c0-.1,0-.16,0-.2a.28.28,0,0,0-.18,0H6.73v1h.1a.3.3,0,0,0,.13,0A.16.16,0,0,0,7,5.19a2.65,2.65,0,0,0,0-.33Z"/><path class="cls-1" d="M18,5.13a.62.62,0,0,1,0,.12.26.26,0,0,1-.15.2.5.5,0,0,1-.15,0,.27.27,0,0,1-.19-.06.17.17,0,0,1-.06-.06A.63.63,0,0,1,17.38,5V4.57a.55.55,0,0,1,.07-.33.35.35,0,0,1,.26-.1.26.26,0,0,1,.21.08.34.34,0,0,1,.07.26v.08h-.15V4.42a.13.13,0,0,0-.05-.12.15.15,0,0,0-.08,0,.14.14,0,0,0-.15.12,2.2,2.2,0,0,0,0,.42,2.81,2.81,0,0,0,0,.29.33.33,0,0,0,0,.17.17.17,0,0,0,.13.07.13.13,0,0,0,.09,0,.29.29,0,0,0,.06-.22V5H18Z"/><path class="cls-1" d="M19,5v.11a.36.36,0,0,1-.1.27.29.29,0,0,1-.22.07.28.28,0,0,1-.25-.1.26.26,0,0,1,0-.09,2.08,2.08,0,0,1,0-.41V4.52a.56.56,0,0,1,.07-.28.33.33,0,0,1,.27-.1.28.28,0,0,1,.26.14.26.26,0,0,1,0,.11c0,.1,0,.31,0,.4A1.85,1.85,0,0,1,19,5Zm-.15-.5a.34.34,0,0,0,0-.18.13.13,0,0,0-.13-.07.15.15,0,0,0-.09,0c-.06,0-.06.14-.06.29v.46a.87.87,0,0,0,0,.19.13.13,0,0,0,.14.1.16.16,0,0,0,.13-.08,1.53,1.53,0,0,0,0-.3V4.52Z"/><path class="cls-1" d="M19.49,4.3v.38h.35v.15h-.35v.62h-.16V4.16h.57V4.3Z"/><path class="cls-1" d="M20.36,4.3v.38h.36v.15h-.36v.62H20.2V4.16h.57V4.3Z"/><path class="cls-1" d="M21.07,5.45V4.16h.57V4.3h-.41v.39h.36v.14h-.36v.48h.42v.14Z"/><path class="cls-1" d="M22,5.45V4.16h.57V4.3h-.41v.39h.36v.14h-.36v.48h.43v.14Z"/><rect class="cls-1" x="0.05" y="6.61" width="7.51" height="0.22"/><rect class="cls-1" x="16.25" y="6.61" width="7.51" height="0.22"/><rect class="cls-1" x="0.05" y="2.98" width="7.51" height="0.22"/><rect class="cls-1" x="16.25" y="2.98" width="7.51" height="0.22"/><path class="cls-1" d="M9.66,8.86H9.42v.2H9.7v.11H9.28V8.46H9.7v.11H9.42v.18h.24Z"/><path class="cls-1" d="M10.29,9a.14.14,0,0,0,0-.07l-.08-.05A.4.4,0,0,1,10,8.79a.19.19,0,0,1,0-.29.28.28,0,0,1,.33,0,.21.21,0,0,1,.06.16h-.14a.19.19,0,0,0,0-.08.1.1,0,0,0-.14,0,.08.08,0,0,0,0,.06.09.09,0,0,0,0,.06l.09,0a.53.53,0,0,1,.15.08.25.25,0,0,1,0,.15.17.17,0,0,1-.06.14.23.23,0,0,1-.17,0A.27.27,0,0,1,10,9.12.16.16,0,0,1,10,9h.13a.13.13,0,0,0,0,.1.11.11,0,0,0,.08,0,.09.09,0,0,0,.07,0A.11.11,0,0,0,10.29,9Z"/><path class="cls-1" d="M11.14,8.57H11v.6h-.14v-.6h-.16V8.46h.46Z"/><path class="cls-1" d="M11.44,9.17h-.13V9.05h.13Z"/><path class="cls-1" d="M12.59,9.17h-.42V9.08l.2-.25.05-.09a.24.24,0,0,0,0-.08.14.14,0,0,0,0-.07.05.05,0,0,0-.05,0,.05.05,0,0,0,0,0,.19.19,0,0,0,0,.08h-.14a.23.23,0,0,1,.06-.16.18.18,0,0,1,.15-.07.18.18,0,0,1,.15.06.19.19,0,0,1,.06.15.21.21,0,0,1,0,.12.77.77,0,0,1-.1.15l-.1.13h.24Z"/><path class="cls-1" d="M13.29,8.89a.34.34,0,0,1-.06.22.16.16,0,0,1-.15.07.18.18,0,0,1-.15-.07.34.34,0,0,1-.06-.22V8.74a.36.36,0,0,1,.06-.22.18.18,0,0,1,.15-.07.17.17,0,0,1,.15.07.36.36,0,0,1,.06.22Zm-.14-.16a.39.39,0,0,0,0-.13s0,0-.05,0h0s0,0-.05,0a.39.39,0,0,0,0,.13v.18A.33.33,0,0,0,13,9a.05.05,0,0,0,.05,0h0a.05.05,0,0,0,.05,0,.33.33,0,0,0,0-.12Z"/><path class="cls-1" d="M14,8.89a.34.34,0,0,1-.06.22.18.18,0,0,1-.15.07.16.16,0,0,1-.15-.07.34.34,0,0,1-.06-.22V8.74a.36.36,0,0,1,.06-.22.16.16,0,0,1,.15-.07.18.18,0,0,1,.15.07.36.36,0,0,1,.06.22Zm-.14-.16a.39.39,0,0,0,0-.13s0,0-.05,0h0s0,0,0,0a.24.24,0,0,0,0,.13v.18c0,.05,0,.1,0,.12a.05.05,0,0,0,0,0h0a.05.05,0,0,0,.05,0,.33.33,0,0,0,0-.12Z"/><path class="cls-1" d="M14.64,8.91h.06V9h-.06v.15H14.5V9h-.24V8.93l.25-.47h.14Zm-.26,0h.12V8.66h0Z"/></g></g></svg>