<?xml version="1.0" encoding="utf-8"?>
<!-- Generator: Adobe Illustrator 23.0.4, SVG Export Plug-In . SVG Version: 6.00 Build 0)  -->
<svg version="1.1" id="Layer_1" xmlns="http://www.w3.org/2000/svg" xmlns:xlink="http://www.w3.org/1999/xlink" x="0px" y="0px"
	 viewBox="0 0 100 100" style="enable-background:new 0 0 100 100;" xml:space="preserve">
<style type="text/css">
	.st0{fill:#F4F7F9;stroke:#060809;stroke-width:2;stroke-linecap:round;stroke-linejoin:round;stroke-miterlimit:10;}
	.st1{fill:#B25B28;stroke:#060809;stroke-width:2;stroke-linecap:round;stroke-linejoin:round;stroke-miterlimit:10;}
	.st2{fill:#F9BA48;stroke:#060809;stroke-width:2;stroke-linecap:round;stroke-linejoin:round;stroke-miterlimit:10;}
	.st3{fill:none;stroke:#060809;stroke-linecap:round;stroke-linejoin:round;stroke-miterlimit:10;}
</style>
<path class="st0" d="M65.1,78.9c0-3.1,2.5-5.5,5.5-5.5v0C81.3,73.4,90,64.7,90,54c0-10.1-7.7-18.4-17.6-19.3
	c0.9-1.3,1.4-2.9,1.4-4.7l0,0c0-3.4-2.1-6.4-5-7.6c-0.9,0.6-1.9,1.1-2.9,1.6l0,0c-2.3,1-4.3,2.3-6,4c-1.2,1.2-2.2,2.5-3,4
	c-0.2,0.5-0.4,0.9-0.7,1.3c-0.1,0.2-0.2,0.5-0.3,0.7l0,0c-0.9,2.2-2.3,4.3-4,6c-1.7,1.7-3.7,3-6,4c-2.3,1-4.3,2.3-6,4
	c-1.7,1.7-3.1,3.8-4,6c-0.6,1.4-1.3,2.7-2.2,3.9c-0.2,2.5-1.3,4.9-3.2,6.8l0,0c-2,2-3.2,4.8-3.2,7.8c0,6.1,5,11.1,11.1,11.1l0,0
	c2.8,0,5.7,1.1,7.8,3.2c2,2,4.8,3.2,7.8,3.2C60.1,90,65.1,85,65.1,78.9z"/>
<path class="st1" d="M61.9,10L61.9,10c-1.7,1.7-3.7,3-6,4l0,0c-2.3,1-4.3,2.3-6,4c-1.7,1.7-3.1,3.8-4,6c-0.9,2.2-2.3,4.3-4,6
	c-1.7,1.7-3.7,3-6,4l0,0c-2.3,1-4.3,2.3-6,4c-1.7,1.7-3.1,3.8-4,6c-0.9,2.2-2.3,4.3-4,6c-1.7,1.7-3.7,3-6,4c-2.3,1-4.3,2.3-6,4l0,0
	c2.7,4.1,6.1,7.4,10,10c1.7-1.7,3.7-3,6-4l0,0c2.3-1,4.3-2.3,6-4c1.7-1.7,3.1-3.8,4-6s2.3-4.3,4-6c1.7-1.7,3.7-3,6-4
	c2.3-1,4.3-2.3,6-4c1.7-1.7,3.1-3.8,4-6v0c0.9-2.2,2.3-4.3,4-6c1.7-1.7,3.7-3,6-4c2.3-1,4.3-2.3,6-4l0,0
	C69.2,15.9,65.7,12.6,61.9,10z"/>
<path class="st2" d="M70.6,65.1c-6.1,0-11.1-5-11.1-11.1c0-6.1,5-11.1,11.1-11.1c6.1,0,11.1,5,11.1,11.1
	C81.7,60.1,76.7,65.1,70.6,65.1z"/>
<path class="st3" d="M72.1,60.4c2.7,0,4.9-2.2,4.9-4.9C77,58.2,74.8,60.4,72.1,60.4z"/>
<path class="st3" d="M19.3,57.3c2.3-1,4.3-2.3,6-4c1.7-1.7,3.1-3.8,4-6c0.9-2.2,2.3-4.3,4-6c-1.7,1.7-3.1,3.8-4,6
	c-0.9,2.2-2.3,4.3-4,6C23.6,54.9,21.6,56.3,19.3,57.3z"/>
<path class="st3" d="M49.3,27.3c0.9-2.2,2.3-4.3,4-6c1.7-1.7,3.7-3,6-4l0,0c2.3-1,4.3-2.3,6-4c-1.7,1.7-3.7,3-6,4l0,0
	c-2.3,1-4.3,2.3-6,4C51.5,23.1,50.2,25.1,49.3,27.3z"/>
<path class="st3" d="M62.6,20.7c-2.3,1-4.3,2.3-6,4c-1.7,1.7-3.1,3.8-4,6c-0.9,2.2-2.3,4.3-4,6c1.7-1.7,3.1-3.8,4-6
	c0.9-2.2,2.3-4.3,4-6C58.2,23,60.3,21.6,62.6,20.7z"/>
<path class="st3" d="M32.6,50.6c-0.9,2.2-2.3,4.3-4,6c-1.7,1.7-3.7,3-6,4l0,0c-2.3,1-4.3,2.3-6,4c1.7-1.7,3.7-3,6-4l0,0
	c2.3-1,4.3-2.3,6-4C30.3,54.9,31.7,52.8,32.6,50.6z"/>
</svg>
