<?xml version="1.0" encoding="utf-8"?>
<!-- Generator: Adobe Illustrator 23.0.4, SVG Export Plug-In . SVG Version: 6.00 Build 0)  -->
<svg version="1.1" id="Layer_1" xmlns="http://www.w3.org/2000/svg" xmlns:xlink="http://www.w3.org/1999/xlink" x="0px" y="0px"
	 viewBox="0 0 100 100" style="enable-background:new 0 0 100 100;" xml:space="preserve">
<style type="text/css">
	.st0{fill:#F9BA48;stroke:#060809;stroke-width:2;stroke-linecap:round;stroke-linejoin:round;stroke-miterlimit:10;}
	.st1{fill:#A5CF64;stroke:#060809;stroke-linecap:round;stroke-linejoin:round;stroke-miterlimit:10;}
	.st2{fill:none;stroke:#060809;stroke-width:2;stroke-linecap:round;stroke-linejoin:round;stroke-miterlimit:10;}
	.st3{fill:#EF484A;stroke:#060809;stroke-linecap:round;stroke-linejoin:round;stroke-miterlimit:10;}
	.st4{fill:#F4F7F9;stroke:#060809;stroke-linecap:round;stroke-linejoin:round;stroke-miterlimit:10;}
	.st5{fill:none;stroke:#060809;stroke-linecap:round;stroke-linejoin:round;stroke-miterlimit:10;}
</style>
<path class="st0" d="M43.1,10L10,90l80-33.1C81.5,36.4,65.2,19.1,43.1,10z"/>
<path class="st1" d="M49.5,46.3c-0.3,0.8-0.8,1.6-1.5,2.3l0,0c-0.7,0.7-1.2,1.4-1.5,2.3c-0.4,0.8-0.5,1.7-0.5,2.7
	c0,0.9-0.2,1.8-0.5,2.7c-0.3,0.8-0.8,1.6-1.5,2.3l0,0c-0.7,0.7-1.2,1.4-1.5,2.3c-0.4,0.8-0.5,1.7-0.5,2.7c0,0.9-0.2,1.8-0.5,2.6
	c-0.3,0.8-0.8,1.6-1.5,2.2c-0.7,0.7-1.2,1.4-1.5,2.3v0c1.5,1,3.2,1.7,4.9,2c0.3-0.8,0.8-1.6,1.5-2.3c0.7-0.7,1.2-1.4,1.5-2.3
	c0.4-0.8,0.5-1.7,0.5-2.6c0-0.9,0.2-1.8,0.5-2.7c0.3-0.8,0.8-1.6,1.5-2.3s1.2-1.4,1.5-2.3c0.3-0.8,0.5-1.7,0.5-2.7h0
	c0-0.9,0.2-1.8,0.5-2.6c0.3-0.8,0.8-1.6,1.5-2.2c0.7-0.7,1.2-1.4,1.5-2.3C52.8,47.3,51.2,46.6,49.5,46.3z"/>
<path class="st2" d="M40.5,16.3c1.9,0.8,2.7,4.1,4.5,5c1.8,0.9,5-0.4,6.7,0.6c1.8,1.1,2,4.5,3.6,5.7c1.7,1.2,5,0.4,6.5,1.7
	c1.6,1.3,1.2,4.7,2.7,6.2c1.5,1.5,4.8,1.1,6.2,2.7c1.3,1.6,0.5,4.9,1.7,6.5c1.2,1.7,4.6,1.9,5.7,3.6c1.1,1.8-0.3,4.9,0.6,6.7
	c0.9,1.8,4.2,2.6,5,4.5c-0.8-1.9-4.1-2.6-5-4.5s0.4-4.9-0.6-6.7c-1.1-1.8-4.5-2-5.7-3.6c-1.2-1.7-0.4-4.9-1.7-6.5
	c-1.3-1.6-4.7-1.2-6.2-2.7c-1.4-1.4-1.1-4.8-2.7-6.2c-1.6-1.3-4.8-0.5-6.5-1.7c-1.7-1.2-1.9-4.6-3.6-5.7c-1.7-1.1-4.9,0.3-6.7-0.6
	C43.2,20.4,42.5,17,40.5,16.3z"/>
<path class="st3" d="M71.2,59.4c-4.2-4.2-11.1-4.2-15.3,0c-3.4,3.4-4,8.4-2,12.4l19.9-8.3C73.3,62,72.5,60.6,71.2,59.4z"/>
<path class="st3" d="M69.3,61.3c-3.2-3.2-8.3-3.2-11.5,0c-2.6,2.6-3,6.4-1.4,9.5l14.9-6.2C70.9,63.4,70.3,62.3,69.3,61.3z"/>
<path class="st3" d="M36.8,47.9c-2.2-2.2-5.1-3.3-8.1-3.2l-7.5,18.2c0.1,0.1,0.2,0.2,0.3,0.3c4.2,4.2,11.1,4.2,15.3,0
	C41,59,41,52.1,36.8,47.9z"/>
<path class="st3" d="M34.9,49.8c-2-2-4.8-2.7-7.3-2.2l-5.2,12.5c0.3,0.4,0.6,0.8,1,1.2c3.2,3.2,8.3,3.2,11.5,0
	C38.1,58.1,38.1,53,34.9,49.8z"/>
<path class="st4" d="M30.5,75.3c-0.5-1.3-1.3-2.5-2.3-3.5c-1-1-2.2-1.8-3.5-2.3c-1-0.4-2.2,0.1-2.7,1.1c-0.4,1,0.1,2.2,1.1,2.7l0,0
	c0.2,0.1,0.3,0.2,0.5,0.3l-3.1,3.1c-0.8,0.8-0.8,2.1,0,2.9c0.8,0.8,2.1,0.8,2.9,0l3.1-3.1c0.1,0.2,0.2,0.3,0.3,0.5h0
	c0.4,1,1.6,1.5,2.7,1.1C30.5,77.5,31,76.4,30.5,75.3z"/>
<path class="st4" d="M48.3,37.4l-3.1-3.1c0.2-0.1,0.3-0.2,0.5-0.3v0c1-0.4,1.5-1.6,1.1-2.6c-0.4-1-1.6-1.5-2.7-1.1v0
	c-1.3,0.5-2.5,1.3-3.5,2.3c-1,1-1.8,2.2-2.3,3.5c-0.4,1,0.1,2.2,1.1,2.7c1,0.4,2.2-0.1,2.7-1.1l0,0c0.1-0.2,0.2-0.3,0.3-0.5l3.1,3.1
	c0.8,0.8,2.1,0.8,2.9,0C49.1,39.5,49.1,38.2,48.3,37.4z"/>
<path class="st4" d="M66.3,42C66.3,42,66.3,42,66.3,42L66.3,42L66.3,42z M66.3,50.2L66.3,50.2c0.5-1.3,0.8-2.7,0.8-4.1
	c0-1.5-0.3-2.9-0.8-4.1c-0.4-1-1.6-1.5-2.7-1.1c-1,0.4-1.5,1.6-1.1,2.7h0c0.1,0.2,0.1,0.4,0.2,0.6l-4.4,0c-1.1,0-2,0.9-2,2
	c0,1.1,0.9,2,2,2h4.4c-0.1,0.2-0.1,0.4-0.2,0.6l0,0c-0.4,1,0.1,2.2,1.1,2.6C64.7,51.8,65.9,51.3,66.3,50.2z"/>
<path class="st5" d="M41.5,24.4v2.7V24.4z"/>
<path class="st5" d="M34.8,41.9h2.7H34.8z"/>
<path class="st5" d="M31.8,69.7l2.7,0L31.8,69.7z"/>
<path class="st5" d="M71.7,52v2.7V52z"/>
<path class="st5" d="M42.7,44.5v2.7V44.5z"/>
<path class="st5" d="M51.3,31.6l1.9,1.9L51.3,31.6z"/>
<path class="st5" d="M34,73.3l1.9,1.9L34,73.3z"/>
<path class="st5" d="M54,39.7h2.7H54z"/>
<path class="st5" d="M55.8,53.3h2.7H55.8z"/>
<path class="st5" d="M16.2,83.8l1.9-1.9L16.2,83.8z"/>
<path class="st2" d="M43.1,10L10,90l80-33.1C81.5,36.4,65.2,19.1,43.1,10z"/>
</svg>
